<svg version="1.1" xmlns="http://www.w3.org/2000/svg" viewBox="0 0 512 512" preserveAspectRatio="xMidYMid meet" xmlns:xlink="http://www.w3.org/1999/xlink" xmlns:svgjs="http://svgjs.dev/svgjs" xmlns:svgjs="http://svgjs.dev/svgjs">
<path d="M0 0 C4.584 2.491 8.273 5.824 12 9.438 C12.914 10.278 13.828 11.118 14.77 11.984 C23.549 20.202 28.351 27.402 28.957 39.676 C29 42.437 29 42.437 28.704 44.769 C29.122 48.538 31.197 50.347 33.785 52.898 C34.3 53.425 34.815 53.952 35.346 54.495 C37.077 56.26 38.826 58.008 40.575 59.755 C41.82 61.016 43.063 62.278 44.305 63.541 C47.686 66.97 51.083 70.383 54.485 73.791 C56.609 75.922 58.731 78.056 60.851 80.191 C68.249 87.641 75.66 95.078 83.083 102.502 C90 109.421 96.887 116.369 103.76 123.332 C109.664 129.309 115.588 135.265 121.529 141.205 C125.076 144.752 128.615 148.308 132.132 151.885 C135.443 155.251 138.779 158.59 142.136 161.91 C143.362 163.13 144.579 164.361 145.785 165.601 C152.007 172.346 152.007 172.346 160.087 176.127 C162.813 176.128 165.309 175.829 168 175.438 C181.638 176.715 191.477 187.579 200 197.438 C204.442 203.753 206.217 209.288 206.375 217 C206.412 217.666 206.45 218.332 206.488 219.018 C206.635 227.576 202.351 234.291 196.663 240.41 C194.92 242.182 193.163 243.941 191.396 245.689 C190.423 246.668 189.452 247.648 188.481 248.63 C185.865 251.269 183.233 253.892 180.597 256.513 C177.828 259.269 175.072 262.037 172.313 264.803 C167.682 269.443 163.04 274.073 158.393 278.697 C153.033 284.029 147.691 289.38 142.359 294.74 C137.764 299.357 133.159 303.965 128.547 308.565 C125.799 311.305 123.054 314.048 120.318 316.801 C117.746 319.388 115.161 321.962 112.567 324.528 C111.173 325.912 109.791 327.308 108.41 328.705 C101.015 335.977 94.49 340.021 84 339.938 C72.974 339.734 66.742 335.943 59 328.438 C57.629 327.177 57.629 327.177 56.23 325.891 C49.05 319.162 43.476 312.402 42 302.438 C42.195 301.153 42.195 301.153 42.395 299.843 C43.009 295.73 43.182 292.278 40.856 288.657 C36.999 283.917 32.479 279.825 28 275.688 C26.648 274.396 25.299 273.102 23.953 271.805 C20.666 268.649 17.344 265.534 14 262.438 C9.839 265.934 5.83 269.489 2.012 273.363 C1.141 274.242 0.27 275.12 -0.627 276.025 C-1.513 276.925 -2.399 277.824 -3.312 278.75 C-5.098 280.561 -6.886 282.37 -8.676 284.176 C-9.459 284.97 -10.242 285.765 -11.048 286.583 C-14.069 289.453 -15.87 289.574 -19.938 289.562 C-20.813 289.565 -21.688 289.568 -22.59 289.57 C-25 289.438 -25 289.438 -28 288.438 C-45.637 305.935 -63.257 323.449 -80.857 340.984 C-89.029 349.125 -97.207 357.26 -105.397 365.382 C-112.534 372.459 -119.661 379.547 -126.775 386.648 C-130.544 390.409 -134.318 394.164 -138.104 397.907 C-141.665 401.428 -145.212 404.962 -148.749 408.508 C-150.052 409.809 -151.36 411.105 -152.674 412.396 C-154.462 414.154 -156.23 415.93 -157.995 417.711 C-158.523 418.222 -159.052 418.733 -159.596 419.259 C-161.207 420.842 -161.207 420.842 -163 423.438 C-162.943 426.061 -162.943 426.061 -162 428.438 C-161.211 441.204 -161.657 450.629 -170.25 460.75 C-176.72 467.518 -183.439 471.965 -192.953 472.773 C-208.015 473.09 -217.318 468.958 -228.225 458.503 C-229.722 457.032 -231.213 455.556 -232.699 454.074 C-233.497 453.283 -234.295 452.491 -235.118 451.676 C-236.793 450.01 -238.466 448.342 -240.137 446.671 C-242.68 444.132 -245.239 441.61 -247.799 439.088 C-249.433 437.459 -251.067 435.83 -252.699 434.199 C-253.458 433.455 -254.216 432.711 -254.997 431.945 C-264.231 422.632 -268.476 413.193 -268.429 400.049 C-268.172 390.646 -265.233 383.433 -258.812 376.5 C-251.109 369.39 -242.992 366.26 -232.625 366.312 C-231.87 366.309 -231.114 366.305 -230.336 366.301 C-229.23 366.303 -229.23 366.303 -228.102 366.305 C-227.435 366.306 -226.768 366.307 -226.081 366.308 C-224 366.438 -224 366.438 -221.728 367.258 C-218.808 367.743 -218.808 367.743 -216.276 365.452 C-215.26 364.461 -214.26 363.453 -213.274 362.433 C-212.718 361.882 -212.163 361.332 -211.59 360.765 C-209.725 358.91 -207.883 357.034 -206.04 355.158 C-204.71 353.827 -203.38 352.497 -202.047 351.169 C-198.429 347.552 -194.829 343.917 -191.233 340.278 C-187.473 336.481 -183.696 332.701 -179.922 328.919 C-172.773 321.753 -165.641 314.57 -158.513 307.383 C-150.399 299.202 -142.268 291.038 -134.136 282.876 C-117.405 266.082 -100.696 249.267 -84 232.438 C-84.33 231.447 -84.66 230.458 -85 229.438 C-85.344 227.238 -85.344 227.238 -85.5 224.75 C-85.572 223.942 -85.644 223.134 -85.719 222.301 C-83.613 213.914 -73.496 206.815 -67.562 200.938 C-66.64 200.02 -65.718 199.102 -64.768 198.156 C-62.514 195.914 -60.258 193.675 -58 191.438 C-62.878 185.622 -67.939 179.987 -73.193 174.51 C-74.149 173.502 -75.093 172.483 -76.025 171.452 C-81.622 165.083 -81.622 165.083 -89.201 161.82 C-92.339 161.792 -92.339 161.792 -95.262 162.176 C-102.103 162.829 -108.455 159.819 -113.656 155.566 C-116.905 152.615 -120.102 149.621 -123.25 146.562 C-123.853 145.986 -124.456 145.409 -125.077 144.815 C-132.006 137.91 -135.347 130.222 -136 120.438 C-135.366 108.502 -129.292 101.259 -121.031 93.176 C-120.273 92.422 -119.515 91.668 -118.734 90.892 C-116.33 88.504 -113.915 86.127 -111.5 83.75 C-109.878 82.143 -108.257 80.536 -106.637 78.928 C-103.662 75.978 -100.684 73.032 -97.701 70.091 C-94.788 67.219 -91.89 64.333 -89 61.438 C-87.972 60.42 -86.944 59.403 -85.914 58.387 C-84.818 57.3 -83.721 56.212 -82.625 55.125 C-82.086 54.595 -81.547 54.064 -80.992 53.518 C-78.135 50.677 -75.401 47.781 -72.778 44.722 C-69.07 40.466 -65.173 36.433 -61.195 32.43 C-60.472 31.701 -59.748 30.971 -59.003 30.22 C-57.483 28.691 -55.962 27.164 -54.44 25.637 C-52.131 23.319 -49.833 20.99 -47.535 18.66 C-46.048 17.166 -44.559 15.672 -43.07 14.18 C-42.395 13.492 -41.72 12.804 -41.024 12.096 C-29.957 1.079 -15.712 -6.4 0 0 Z M-20.682 25.452 C-21.566 26.27 -22.45 27.087 -23.36 27.93 C-27.233 31.608 -31.043 35.341 -34.814 39.123 C-35.632 39.938 -36.45 40.754 -37.292 41.595 C-39.957 44.256 -42.62 46.921 -45.281 49.586 C-47.145 51.449 -49.01 53.313 -50.874 55.176 C-54.762 59.062 -58.648 62.951 -62.533 66.84 C-67.021 71.334 -71.513 75.824 -76.006 80.312 C-80.345 84.646 -84.681 88.982 -89.016 93.32 C-90.856 95.16 -92.697 97 -94.538 98.839 C-97.101 101.4 -99.661 103.964 -102.221 106.529 C-102.983 107.289 -103.746 108.05 -104.531 108.833 C-105.227 109.531 -105.922 110.229 -106.638 110.948 C-107.242 111.553 -107.847 112.158 -108.47 112.782 C-110.866 115.375 -111.953 117.157 -112.543 120.664 C-111.775 126.002 -109.144 128.222 -105.312 131.812 C-104.687 132.44 -104.061 133.068 -103.416 133.715 C-100.834 136.218 -98.693 138.149 -95.355 139.539 C-90.542 139.332 -87.147 135.836 -83.875 132.58 C-83.087 131.8 -82.299 131.021 -81.487 130.218 C-80.212 128.941 -80.212 128.941 -78.911 127.639 C-78.005 126.74 -77.099 125.84 -76.165 124.913 C-73.687 122.453 -71.216 119.987 -68.747 117.519 C-67.203 115.976 -65.657 114.435 -64.112 112.895 C-58.717 107.519 -53.328 102.138 -47.944 96.752 C-42.926 91.733 -37.898 86.726 -32.864 81.724 C-28.539 77.425 -24.222 73.118 -19.911 68.806 C-17.337 66.232 -14.761 63.661 -12.176 61.098 C-9.297 58.241 -6.433 55.369 -3.571 52.495 C-2.713 51.648 -1.855 50.801 -0.971 49.928 C-0.194 49.143 0.583 48.358 1.383 47.549 C2.061 46.872 2.74 46.195 3.439 45.497 C5.259 43.095 5.742 41.424 6 38.438 C4.01 33.976 0.619 30.591 -2.75 27.125 C-3.25 26.575 -3.75 26.025 -4.266 25.459 C-6.881 22.773 -8.598 21.55 -12.266 20.52 C-16.379 21.531 -17.631 22.624 -20.682 25.452 Z M12.612 67.703 C12.016 68.3 11.419 68.897 10.805 69.513 C10.122 70.194 9.439 70.876 8.735 71.578 C7.604 72.714 7.604 72.714 6.451 73.873 C5.266 75.058 5.266 75.058 4.056 76.267 C1.43 78.894 -1.193 81.525 -3.816 84.156 C-5.631 85.973 -7.445 87.789 -9.26 89.604 C-13.558 93.906 -17.854 98.209 -22.148 102.513 C-27.036 107.413 -31.927 112.309 -36.818 117.205 C-46.882 127.279 -56.942 137.357 -67 147.438 C-66.054 148.55 -65.107 149.661 -64.16 150.772 C-63.369 151.7 -63.369 151.7 -62.562 152.647 C-60.515 154.994 -58.343 157.19 -56.125 159.375 C-55.344 160.147 -54.563 160.919 -53.758 161.715 C-53.178 162.283 -52.598 162.852 -52 163.438 C-46.858 159.134 -42.048 154.624 -37.321 149.872 C-36.222 148.773 -36.222 148.773 -35.101 147.652 C-32.701 145.252 -30.306 142.849 -27.91 140.445 C-26.239 138.772 -24.567 137.099 -22.896 135.426 C-18.512 131.039 -14.132 126.649 -9.752 122.258 C-5.276 117.772 -0.797 113.288 3.682 108.805 C12.457 100.018 21.23 91.229 30 82.438 C29.053 81.325 28.106 80.214 27.157 79.103 C26.63 78.484 26.102 77.865 25.559 77.228 C23.524 74.891 21.381 72.686 19.188 70.5 C18.418 69.728 17.648 68.956 16.855 68.16 C14.704 65.947 14.704 65.947 12.612 67.703 Z M44.612 99.703 C44.016 100.3 43.419 100.897 42.805 101.513 C42.122 102.194 41.439 102.876 40.735 103.578 C39.604 104.714 39.604 104.714 38.451 105.873 C37.266 107.058 37.266 107.058 36.056 108.267 C33.43 110.894 30.807 113.525 28.184 116.156 C26.369 117.973 24.555 119.789 22.74 121.604 C18.442 125.906 14.146 130.209 9.852 134.513 C4.964 139.413 0.073 144.309 -4.818 149.205 C-14.882 159.279 -24.942 169.357 -35 179.438 C-31.311 183.835 -27.521 188.04 -23.454 192.097 C-22.677 192.874 -22.677 192.874 -21.884 193.667 C-20.199 195.352 -18.51 197.033 -16.82 198.715 C-15.64 199.893 -14.461 201.071 -13.281 202.25 C-10.196 205.331 -7.108 208.409 -4.019 211.487 C-0.86 214.636 2.296 217.788 5.453 220.939 C11.633 227.108 17.815 233.274 24 239.438 C29.142 235.134 33.952 230.624 38.679 225.872 C39.778 224.773 39.778 224.773 40.899 223.652 C43.299 221.252 45.694 218.849 48.09 216.445 C49.761 214.772 51.433 213.099 53.104 211.426 C57.488 207.039 61.868 202.649 66.248 198.258 C70.724 193.772 75.203 189.288 79.682 184.805 C88.457 176.018 97.23 167.229 106 158.438 C102.313 154.044 98.526 149.838 94.469 145.778 C93.953 145.26 93.437 144.742 92.905 144.208 C91.224 142.523 89.54 140.841 87.855 139.16 C86.678 137.982 85.501 136.804 84.324 135.625 C81.87 133.17 79.415 130.717 76.958 128.265 C73.803 125.116 70.652 121.961 67.502 118.806 C65.079 116.379 62.653 113.954 60.227 111.531 C59.063 110.367 57.9 109.204 56.738 108.039 C55.122 106.421 53.503 104.806 51.884 103.192 C50.502 101.811 50.502 101.811 49.092 100.402 C46.802 97.93 46.802 97.93 44.612 99.703 Z M120.612 175.703 C120.016 176.3 119.419 176.897 118.805 177.513 C118.122 178.194 117.439 178.876 116.735 179.578 C115.604 180.714 115.604 180.714 114.451 181.873 C113.266 183.058 113.266 183.058 112.056 184.267 C109.43 186.894 106.807 189.525 104.184 192.156 C102.369 193.973 100.555 195.789 98.74 197.604 C94.442 201.906 90.146 206.209 85.852 210.513 C80.964 215.413 76.073 220.309 71.182 225.205 C61.118 235.279 51.058 245.357 41 255.438 C41.946 256.55 42.893 257.661 43.84 258.772 C44.631 259.7 44.631 259.7 45.438 260.647 C47.485 262.994 49.657 265.19 51.875 267.375 C52.656 268.147 53.437 268.919 54.242 269.715 C54.822 270.283 55.402 270.852 56 271.438 C61.142 267.134 65.952 262.624 70.679 257.872 C71.778 256.773 71.778 256.773 72.899 255.652 C75.299 253.252 77.694 250.849 80.09 248.445 C81.761 246.772 83.433 245.099 85.104 243.426 C89.488 239.039 93.868 234.649 98.248 230.258 C102.724 225.772 107.203 221.288 111.682 216.805 C120.457 208.018 129.23 199.229 138 190.438 C137.053 189.325 136.106 188.214 135.157 187.103 C134.63 186.484 134.102 185.865 133.559 185.228 C131.524 182.891 129.381 180.686 127.188 178.5 C126.418 177.728 125.648 176.956 124.855 176.16 C122.704 173.947 122.704 173.947 120.612 175.703 Z M154.875 205.289 C154.087 206.066 153.299 206.844 152.487 207.646 C151.637 208.495 150.787 209.345 149.911 210.22 C149.005 211.118 148.099 212.016 147.165 212.941 C144.687 215.397 142.216 217.859 139.747 220.323 C138.203 221.864 136.657 223.403 135.112 224.941 C129.717 230.312 124.328 235.687 118.944 241.068 C113.928 246.08 108.899 251.079 103.864 256.073 C99.537 260.365 95.22 264.666 90.911 268.975 C88.338 271.546 85.762 274.114 83.176 276.672 C80.294 279.523 77.432 282.394 74.571 285.267 C73.713 286.11 72.855 286.954 71.971 287.822 C71.194 288.609 70.417 289.395 69.617 290.206 C68.939 290.882 68.26 291.558 67.561 292.255 C65.605 294.99 65.235 297.108 65 300.438 C66.085 302.582 66.085 302.582 67.938 304.312 C68.586 304.98 69.234 305.648 69.902 306.336 C70.941 307.376 70.941 307.376 72 308.438 C72.661 309.193 73.323 309.948 74.004 310.727 C77.145 314.205 78.971 316.207 83.625 317.25 C88.039 316.187 89.841 314.674 93 311.438 C93 310.778 93 310.118 93 309.438 C94.485 308.942 94.485 308.942 96 308.438 C96 307.778 96 307.118 96 306.438 C97.485 305.942 97.485 305.942 99 305.438 C100.366 303.798 101.695 302.126 103 300.438 C105.338 297.982 107.573 295.749 110.312 293.75 C110.869 293.317 111.426 292.884 112 292.438 C112 291.778 112 291.118 112 290.438 C112.66 290.438 113.32 290.438 114 290.438 C115.71 288.816 117.369 287.139 119 285.438 C119.961 284.493 120.926 283.551 121.895 282.613 C122.867 281.659 123.84 280.704 124.812 279.75 C125.315 279.265 125.817 278.779 126.334 278.279 C127.594 277.036 128.802 275.741 130 274.438 C130 273.778 130 273.118 130 272.438 C130.66 272.438 131.32 272.438 132 272.438 C132 271.778 132 271.118 132 270.438 C132.601 270.167 133.203 269.896 133.822 269.617 C135.99 268.443 137.214 267.382 138.842 265.559 C139.371 264.976 139.9 264.393 140.445 263.793 C141.013 263.16 141.58 262.527 142.164 261.875 C147.471 256.066 152.935 250.475 158.586 245 C160.044 243.577 161.503 242.154 162.961 240.73 C165.189 238.558 167.422 236.392 169.67 234.241 C171.887 232.114 174.082 229.966 176.273 227.812 C176.951 227.174 177.629 226.535 178.328 225.877 C181.488 222.736 182.874 221.217 183.601 216.708 C182.98 213.331 182.52 212.085 180.113 209.727 C179.2 208.82 179.2 208.82 178.268 207.895 C177.622 207.29 176.977 206.685 176.312 206.062 C175.687 205.435 175.061 204.807 174.416 204.16 C171.834 201.657 169.693 199.726 166.355 198.336 C161.545 198.543 158.148 202.038 154.875 205.289 Z M-42.582 208.906 C-43.247 209.577 -43.912 210.247 -44.598 210.938 C-45.316 211.659 -46.035 212.381 -46.775 213.125 C-47.53 213.888 -48.285 214.651 -49.062 215.438 C-49.821 216.201 -50.58 216.964 -51.361 217.75 C-53.243 219.644 -55.123 221.54 -57 223.438 C-55.624 226.529 -54.048 228.634 -51.652 231.013 C-50.971 231.693 -50.291 232.374 -49.59 233.075 C-48.856 233.798 -48.123 234.521 -47.367 235.266 C-46.615 236.015 -45.864 236.764 -45.089 237.535 C-42.689 239.924 -40.282 242.306 -37.875 244.688 C-36.246 246.307 -34.617 247.927 -32.988 249.547 C-28.997 253.516 -25.001 257.479 -21 261.438 C-17.986 259.994 -15.895 258.572 -13.547 256.18 C-12.928 255.554 -12.309 254.929 -11.672 254.285 C-11.038 253.634 -10.403 252.983 -9.75 252.312 C-9.1 251.654 -8.451 250.995 -7.781 250.316 C-6.183 248.695 -4.59 247.067 -3 245.438 C-7.237 240.381 -11.661 235.629 -16.332 230.973 C-17.009 230.294 -17.686 229.616 -18.384 228.918 C-19.802 227.499 -21.222 226.081 -22.642 224.665 C-24.827 222.485 -27.007 220.301 -29.186 218.115 C-30.567 216.734 -31.95 215.353 -33.332 213.973 C-33.986 213.317 -34.64 212.66 -35.314 211.984 C-38.622 207.59 -38.622 207.59 -42.582 208.906 Z M-70.61 251.919 C-71.125 252.436 -71.639 252.954 -72.169 253.487 C-72.985 254.301 -72.985 254.301 -73.818 255.132 C-75.655 256.968 -77.489 258.807 -79.323 260.646 C-80.633 261.957 -81.943 263.267 -83.254 264.577 C-86.824 268.147 -90.391 271.72 -93.958 275.294 C-97.681 279.023 -101.407 282.75 -105.133 286.477 C-112.193 293.54 -119.251 300.606 -126.308 307.673 C-134.34 315.716 -142.374 323.756 -150.409 331.796 C-166.943 348.34 -183.472 364.888 -200 381.438 C-198.341 384.961 -196.433 387.237 -193.648 389.984 C-192.372 391.251 -192.372 391.251 -191.07 392.543 C-190.181 393.416 -189.291 394.288 -188.375 395.188 C-187.478 396.076 -186.581 396.964 -185.656 397.879 C-183.442 400.07 -181.223 402.256 -179 404.438 C-175.091 402.849 -172.46 400.172 -169.546 397.224 C-168.738 396.419 -168.738 396.419 -167.914 395.597 C-166.112 393.798 -164.316 391.992 -162.521 390.185 C-161.23 388.894 -159.938 387.603 -158.647 386.312 C-155.141 382.807 -151.641 379.295 -148.142 375.782 C-144.484 372.112 -140.821 368.448 -137.159 364.783 C-130.224 357.842 -123.295 350.896 -116.367 343.948 C-108.48 336.039 -100.587 328.135 -92.693 320.232 C-76.456 303.973 -60.226 287.708 -44 271.438 C-44.955 270.317 -45.911 269.198 -46.867 268.079 C-47.399 267.456 -47.931 266.832 -48.479 266.19 C-50.264 264.133 -52.127 262.181 -54.051 260.254 C-55.098 259.205 -55.098 259.205 -56.166 258.135 C-57.229 257.078 -57.229 257.078 -58.312 256 C-59.04 255.268 -59.768 254.537 -60.518 253.783 C-61.555 252.748 -61.555 252.748 -62.613 251.691 C-63.554 250.753 -63.554 250.753 -64.513 249.795 C-67.383 247.175 -68.234 249.553 -70.61 251.919 Z M-243.812 394.562 C-245.445 398.515 -245.877 402.232 -245 406.438 C-241.801 411.928 -237.58 416.148 -233.094 420.609 C-232.332 421.373 -231.57 422.137 -230.786 422.923 C-229.181 424.529 -227.574 426.133 -225.964 427.734 C-223.501 430.186 -221.049 432.649 -218.598 435.113 C-217.034 436.675 -215.471 438.236 -213.906 439.797 C-213.174 440.533 -212.441 441.27 -211.687 442.029 C-210.999 442.71 -210.312 443.391 -209.604 444.093 C-209.003 444.692 -208.402 445.291 -207.783 445.909 C-203.752 449.365 -200.345 449.823 -195.184 449.688 C-191.002 449.209 -188.85 447.434 -186.188 444.312 C-184.555 440.36 -184.123 436.643 -185 432.438 C-188.199 426.947 -192.42 422.727 -196.906 418.266 C-197.668 417.502 -198.43 416.738 -199.214 415.952 C-200.819 414.346 -202.426 412.742 -204.036 411.141 C-206.499 408.689 -208.951 406.226 -211.402 403.762 C-212.966 402.2 -214.529 400.639 -216.094 399.078 C-216.826 398.342 -217.559 397.605 -218.313 396.846 C-219.001 396.165 -219.688 395.484 -220.396 394.782 C-220.997 394.183 -221.598 393.584 -222.217 392.966 C-226.248 389.51 -229.655 389.052 -234.816 389.188 C-238.998 389.666 -241.15 391.441 -243.812 394.562 Z " fill="#ffffff" transform="translate(268,1.5625)" class=""></path>
<path d="M0 0 C1.601 -0.006 3.201 -0.013 4.802 -0.021 C9.133 -0.039 13.463 -0.038 17.794 -0.032 C21.417 -0.029 25.04 -0.035 28.663 -0.041 C37.215 -0.055 45.767 -0.053 54.318 -0.042 C63.123 -0.031 71.927 -0.045 80.732 -0.071 C88.308 -0.094 95.883 -0.1 103.459 -0.094 C107.976 -0.091 112.494 -0.093 117.011 -0.111 C121.261 -0.126 125.511 -0.122 129.761 -0.103 C131.315 -0.1 132.868 -0.103 134.422 -0.113 C146.895 -0.191 156.822 1.697 166.196 10.404 C175.964 20.692 176.674 31.896 176.336 45.416 C176.29 46.732 176.244 48.048 176.196 49.404 C176.787 49.513 177.378 49.622 177.987 49.734 C188.972 51.932 196.565 58.502 203.196 67.404 C207.424 74.3 209.506 81.139 209.532 89.252 C209.538 89.986 209.545 90.72 209.552 91.477 C209.562 93.021 209.567 94.565 209.566 96.108 C209.571 98.464 209.607 100.817 209.645 103.172 C209.651 104.677 209.655 106.183 209.657 107.689 C209.671 108.388 209.685 109.087 209.7 109.808 C209.656 114.612 208.594 117.031 205.196 120.404 C202.809 121.597 201.349 121.533 198.685 121.538 C197.729 121.543 196.774 121.547 195.79 121.552 C194.204 121.552 194.204 121.552 192.587 121.551 C190.911 121.557 190.911 121.557 189.202 121.562 C185.433 121.573 181.664 121.577 177.896 121.581 C175.204 121.587 172.512 121.594 169.821 121.601 C161.725 121.621 153.629 121.631 145.534 121.64 C141.723 121.644 137.913 121.649 134.103 121.655 C121.44 121.672 108.778 121.686 96.115 121.693 C92.828 121.695 89.541 121.697 86.254 121.699 C85.029 121.7 85.029 121.7 83.778 121.701 C70.538 121.709 57.299 121.734 44.059 121.767 C30.472 121.8 16.886 121.818 3.3 121.821 C-4.331 121.823 -11.962 121.832 -19.593 121.858 C-26.091 121.879 -32.588 121.887 -39.086 121.878 C-42.402 121.873 -45.718 121.877 -49.034 121.894 C-52.628 121.912 -56.221 121.905 -59.814 121.892 C-60.864 121.903 -61.915 121.914 -62.997 121.925 C-67.405 121.886 -70.058 121.845 -73.91 119.57 C-78.526 114.292 -78.128 107.415 -78.054 100.779 C-78.043 99.457 -78.043 99.457 -78.031 98.108 C-77.776 82.508 -75.113 71.227 -64.21 59.67 C-58.464 54.259 -51.915 49.404 -43.804 49.404 C-43.851 48.088 -43.897 46.772 -43.945 45.416 C-44.276 32.184 -43.616 21.952 -34.789 11.408 C-24.67 1.19 -13.691 -0.044 0 0 Z M-18.304 27.967 C-22.982 35.568 -20.804 34.68 -20.804 48.404 C36.616 48.404 94.036 48.404 153.196 48.404 C154.675 33.421 154.675 33.421 149.196 26.404 C144.145 22.648 139.264 22.281 133.112 22.264 C131.279 22.255 131.279 22.255 129.408 22.246 C128.062 22.245 126.715 22.244 125.369 22.243 C123.944 22.238 122.52 22.233 121.095 22.228 C117.231 22.215 113.367 22.208 109.504 22.204 C107.087 22.201 104.67 22.197 102.253 22.192 C94.684 22.179 87.114 22.169 79.544 22.165 C70.822 22.161 62.099 22.143 53.376 22.114 C46.623 22.093 39.871 22.082 33.118 22.081 C29.09 22.08 25.061 22.074 21.033 22.056 C17.241 22.04 13.449 22.038 9.657 22.046 C8.271 22.047 6.884 22.043 5.498 22.033 C-7.501 21.743 -7.501 21.743 -18.304 27.967 Z M-50.804 79.404 C-54.974 85.995 -54.804 91.644 -54.804 99.404 C24.726 99.404 104.256 99.404 186.196 99.404 C186.908 86.059 186.908 86.059 180.688 76.728 C174.312 70.516 166.148 70.099 157.581 70.15 C156.763 70.147 155.945 70.144 155.102 70.141 C152.387 70.133 149.673 70.139 146.958 70.145 C145 70.143 143.043 70.139 141.086 70.135 C135.789 70.126 130.491 70.129 125.194 70.135 C119.641 70.14 114.088 70.136 108.534 70.133 C99.21 70.129 89.886 70.134 80.562 70.143 C69.794 70.154 59.025 70.151 48.257 70.14 C38.999 70.131 29.741 70.129 20.483 70.135 C14.959 70.138 9.435 70.138 3.911 70.131 C-1.283 70.126 -6.477 70.13 -11.671 70.141 C-13.573 70.144 -15.475 70.143 -17.377 70.139 C-19.982 70.133 -22.586 70.14 -25.19 70.15 C-25.936 70.146 -26.681 70.141 -27.45 70.137 C-37.195 70.208 -44.188 71.978 -50.804 79.404 Z " fill="#ffffff" transform="translate(302.80419921875,390.595947265625)" class=""></path>
<path d="M0 0 C1.601 -0.006 3.201 -0.013 4.802 -0.021 C9.133 -0.039 13.463 -0.038 17.794 -0.032 C21.417 -0.029 25.04 -0.035 28.663 -0.041 C37.215 -0.055 45.767 -0.053 54.318 -0.042 C63.123 -0.031 71.927 -0.045 80.732 -0.071 C88.308 -0.094 95.883 -0.1 103.459 -0.094 C107.976 -0.091 112.494 -0.093 117.011 -0.111 C121.261 -0.126 125.511 -0.122 129.761 -0.103 C131.315 -0.1 132.868 -0.103 134.422 -0.113 C146.895 -0.191 156.822 1.697 166.196 10.404 C174.438 19.085 176.549 28.428 176.446 40.092 C176.363 43.165 176.281 46.238 176.196 49.404 C168.606 49.074 161.016 48.744 153.196 48.404 C152.946 40.779 152.946 40.779 152.898 38.413 C152.656 33.407 151.754 30.172 148.196 26.404 C140.926 22.571 132.908 22.979 124.915 23.016 C123.489 23.012 122.064 23.006 120.639 23 C116.792 22.986 112.945 22.992 109.098 23.001 C105.058 23.009 101.019 23.002 96.979 22.997 C90.197 22.991 83.415 22.999 76.633 23.013 C68.81 23.029 60.986 23.024 53.163 23.007 C46.427 22.994 39.691 22.992 32.955 23 C28.941 23.004 24.926 23.005 20.911 22.995 C17.135 22.986 13.36 22.993 9.584 23.01 C7.549 23.016 5.515 23.007 3.481 22.997 C-3.274 23.044 -9.706 23.189 -15.804 26.404 C-20.01 30.858 -20.436 34.945 -20.554 40.779 C-20.637 43.295 -20.719 45.812 -20.804 48.404 C-28.394 48.734 -35.984 49.064 -43.804 49.404 C-44.512 23.023 -44.512 23.023 -34.789 11.408 C-24.67 1.19 -13.691 -0.044 0 0 Z " fill="#155dfc" transform="translate(302.80419921875,390.595947265625)" class=""></path>
<path d="M0 0 C2.326 0.942 3.597 2.129 5.345 3.926 C5.963 4.554 6.582 5.183 7.22 5.83 C7.854 6.489 8.488 7.149 9.142 7.828 C10.116 8.823 10.116 8.823 11.11 9.838 C12.711 11.474 14.303 13.118 15.892 14.766 C11.562 19.942 7.017 24.779 2.234 29.537 C1.492 30.279 0.75 31.021 -0.015 31.786 C-2.447 34.218 -4.883 36.646 -7.319 39.074 C-9.015 40.768 -10.71 42.462 -12.405 44.156 C-16.852 48.599 -21.301 53.038 -25.751 57.477 C-30.298 62.013 -34.842 66.553 -39.386 71.092 C-48.29 79.986 -57.198 88.877 -66.108 97.766 C-67.219 96.816 -68.33 95.867 -69.44 94.917 C-70.059 94.388 -70.677 93.859 -71.315 93.314 C-73.635 91.311 -75.893 89.259 -78.108 87.141 C-78.892 86.406 -79.676 85.671 -80.483 84.914 C-82.108 82.766 -82.108 82.766 -81.903 80.849 C-80.97 78.402 -79.86 77.134 -78.016 75.279 C-77.356 74.607 -76.695 73.935 -76.015 73.243 C-75.286 72.518 -74.557 71.792 -73.806 71.044 C-73.042 70.271 -72.278 69.498 -71.49 68.702 C-68.958 66.146 -66.415 63.602 -63.87 61.059 C-62.11 59.291 -60.349 57.523 -58.59 55.755 C-54.898 52.05 -51.201 48.351 -47.5 44.657 C-43.219 40.382 -38.953 36.093 -34.694 31.797 C-30.597 27.666 -26.487 23.549 -22.371 19.437 C-20.621 17.685 -18.874 15.929 -17.131 14.168 C-14.699 11.714 -12.251 9.275 -9.799 6.841 C-9.076 6.105 -8.353 5.369 -7.608 4.61 C-6.94 3.953 -6.271 3.295 -5.582 2.618 C-5.004 2.039 -4.427 1.461 -3.832 0.865 C-2.108 -0.234 -2.108 -0.234 0 0 Z " fill="#155dfc" transform="translate(375.1083860397339,160.2343339920044)" class=""></path>
<path d="M0 0 C1.111 0.949 2.222 1.899 3.332 2.849 C3.951 3.378 4.569 3.907 5.206 4.452 C7.527 6.455 9.784 8.507 12 10.625 C13.176 11.727 13.176 11.727 14.375 12.852 C16 15 16 15 15.795 16.916 C14.861 19.363 13.751 20.631 11.908 22.487 C11.247 23.159 10.587 23.83 9.907 24.522 C9.178 25.248 8.449 25.974 7.698 26.722 C6.934 27.495 6.169 28.267 5.382 29.064 C2.85 31.619 0.306 34.164 -2.238 36.707 C-3.999 38.475 -5.759 40.242 -7.519 42.011 C-11.21 45.715 -14.907 49.414 -18.608 53.109 C-22.889 57.384 -27.155 61.672 -31.414 65.969 C-35.511 70.1 -39.621 74.217 -43.737 78.328 C-45.488 80.081 -47.234 81.837 -48.977 83.598 C-51.41 86.052 -53.857 88.49 -56.31 90.925 C-57.033 91.661 -57.755 92.397 -58.5 93.155 C-59.169 93.813 -59.838 94.471 -60.527 95.148 C-61.104 95.726 -61.682 96.305 -62.277 96.9 C-64 98 -64 98 -66.108 97.766 C-68.435 96.824 -69.705 95.637 -71.453 93.84 C-72.072 93.211 -72.691 92.583 -73.328 91.936 C-73.962 91.276 -74.597 90.617 -75.25 89.938 C-75.9 89.274 -76.549 88.611 -77.219 87.928 C-78.819 86.292 -80.411 84.648 -82 83 C-77.67 77.823 -73.125 72.987 -68.342 68.229 C-67.6 67.486 -66.858 66.744 -66.093 65.979 C-63.661 63.548 -61.225 61.12 -58.789 58.691 C-57.093 56.998 -55.398 55.304 -53.703 53.61 C-49.257 49.167 -44.807 44.728 -40.357 40.289 C-35.811 35.752 -31.267 31.213 -26.723 26.674 C-17.818 17.78 -8.91 8.889 0 0 Z " fill="#155dfc" transform="translate(298,83)" class=""></path>
</svg>